<svg width="23" height="25" viewBox="0 0 23 25" fill="none" xmlns="http://www.w3.org/2000/svg">
<path d="M3.38235 25C2.4371 25 1.63706 24.6816 0.982235 24.0447C0.327412 23.4079 0 22.6298 0 21.7105V17.9151H4.05882V0H23V21.7105C23 22.6298 22.6726 23.4079 22.0178 24.0447C21.3629 24.6816 20.5629 25 19.6176 25H3.38235ZM19.6176 23.0263C20.001 23.0263 20.3223 22.9002 20.5816 22.648C20.8409 22.3958 20.9706 22.0833 20.9706 21.7105V1.97368H6.08824V17.9151H18.2647V21.7105C18.2647 22.0833 18.3944 22.3958 18.6537 22.648C18.913 22.9002 19.2343 23.0263 19.6176 23.0263ZM7.70128 8.1477V6.17401H19.3575V8.1477H7.70128ZM7.70128 11.9434V9.96974H19.3575V11.9434H7.70128ZM3.38235 23.0263H16.2353V19.8885H2.02941V21.7105C2.02941 22.0833 2.15907 22.3958 2.41838 22.648C2.6777 22.9002 2.99902 23.0263 3.38235 23.0263ZM3.38235 23.0263H2.02941H16.2353H3.38235Z" fill="#00AAE5"/>
</svg>
