<svg width="32" height="26" viewBox="0 0 32 26" fill="none" xmlns="http://www.w3.org/2000/svg">
<path d="M0 26V21.9556C0 21.1611 0.207002 20.4148 0.621005 19.7167C1.03501 19.0185 1.60731 18.4889 2.3379 18.1278C3.57991 17.5019 4.98021 16.9722 6.53881 16.5389C8.09741 16.1056 9.81431 15.8889 11.6895 15.8889C13.5647 15.8889 15.2816 16.1056 16.8402 16.5389C18.3988 16.9722 19.7991 17.5019 21.0411 18.1278C21.7717 18.4889 22.344 19.0185 22.758 19.7167C23.172 20.4148 23.379 21.1611 23.379 21.9556V26H0ZM2.92237 23.1111H20.4566V21.9556C20.4566 21.6907 20.3897 21.45 20.2557 21.2333C20.1218 21.0167 19.9452 20.8481 19.726 20.7278C18.8493 20.2944 17.723 19.8611 16.347 19.4278C14.9711 18.9944 13.4186 18.7778 11.6895 18.7778C9.96043 18.7778 8.40792 18.9944 7.03196 19.4278C5.65601 19.8611 4.52968 20.2944 3.65297 20.7278C3.43379 20.8481 3.25723 21.0167 3.12329 21.2333C2.98935 21.45 2.92237 21.6907 2.92237 21.9556V23.1111ZM11.6895 14.4444C10.0822 14.4444 8.70624 13.8787 7.56164 12.7472C6.41705 11.6157 5.84475 10.2556 5.84475 8.66667H5.47945C5.26027 8.66667 5.08371 8.60046 4.94977 8.46806C4.81583 8.33565 4.74886 8.16111 4.74886 7.94444C4.74886 7.72778 4.81583 7.55324 4.94977 7.42083C5.08371 7.28843 5.26027 7.22222 5.47945 7.22222H5.84475C5.84475 6.13889 6.11263 5.16389 6.6484 4.29722C7.18417 3.43056 7.89041 2.74444 8.76712 2.23889V3.61111C8.76712 3.82778 8.83409 4.00231 8.96804 4.13472C9.10198 4.26713 9.27854 4.33333 9.49772 4.33333C9.7169 4.33333 9.89346 4.26713 10.0274 4.13472C10.1613 4.00231 10.2283 3.82778 10.2283 3.61111V1.66111C10.4475 1.58889 10.6788 1.53472 10.9224 1.49861C11.1659 1.4625 11.4216 1.44444 11.6895 1.44444C11.9574 1.44444 12.2131 1.4625 12.4566 1.49861C12.7002 1.53472 12.9315 1.58889 13.1507 1.66111V3.61111C13.1507 3.82778 13.2177 4.00231 13.3516 4.13472C13.4855 4.26713 13.6621 4.33333 13.8813 4.33333C14.1005 4.33333 14.277 4.26713 14.411 4.13472C14.5449 4.00231 14.6119 3.82778 14.6119 3.61111V2.23889C15.4886 2.74444 16.1948 3.43056 16.7306 4.29722C17.2664 5.16389 17.5342 6.13889 17.5342 7.22222H17.8995C18.1187 7.22222 18.2953 7.28843 18.4292 7.42083C18.5632 7.55324 18.6301 7.72778 18.6301 7.94444C18.6301 8.16111 18.5632 8.33565 18.4292 8.46806C18.2953 8.60046 18.1187 8.66667 17.8995 8.66667H17.5342C17.5342 10.2556 16.9619 11.6157 15.8174 12.7472C14.6728 13.8787 13.2968 14.4444 11.6895 14.4444ZM11.6895 11.5556C12.4932 11.5556 13.1811 11.2727 13.7534 10.7069C14.3257 10.1412 14.6119 9.46111 14.6119 8.66667H8.76712C8.76712 9.46111 9.05327 10.1412 9.62557 10.7069C10.1979 11.2727 10.8858 11.5556 11.6895 11.5556ZM22.6484 17.3333L22.4292 16.25C22.2831 16.2019 22.1431 16.1477 22.0091 16.0875C21.8752 16.0273 21.7473 15.937 21.6256 15.8167L20.6027 16.1778L19.8721 14.8778L20.6758 14.1556V13.2889L19.8721 12.5667L20.6027 11.2667L21.6256 11.6278C21.723 11.5315 21.8448 11.4472 21.9909 11.375C22.137 11.3028 22.2831 11.2426 22.4292 11.1944L22.6484 10.1111H24.1096L24.3288 11.1944C24.4749 11.2426 24.621 11.3028 24.7671 11.375C24.9132 11.4472 25.035 11.5315 25.1324 11.6278L26.1553 11.2667L26.8858 12.5667L26.0822 13.2889V14.1556L26.8858 14.8778L26.1553 16.1778L25.1324 15.8167C25.0107 15.937 24.8828 16.0273 24.7489 16.0875C24.6149 16.1477 24.4749 16.2019 24.3288 16.25L24.1096 17.3333H22.6484ZM23.379 14.8056C23.6712 14.8056 23.9269 14.6972 24.1461 14.4806C24.3653 14.2639 24.4749 14.0111 24.4749 13.7222C24.4749 13.4333 24.3653 13.1806 24.1461 12.9639C23.9269 12.7472 23.6712 12.6389 23.379 12.6389C23.0868 12.6389 22.8311 12.7472 22.6119 12.9639C22.3927 13.1806 22.2831 13.4333 22.2831 13.7222C22.2831 14.0111 22.3927 14.2639 22.6119 14.4806C22.8311 14.6972 23.0868 14.8056 23.379 14.8056ZM26.0091 10.1111L25.7169 8.59444C25.4977 8.52222 25.2968 8.43194 25.1142 8.32361C24.9315 8.21528 24.7671 8.08889 24.621 7.94444L23.0868 8.45L22.0639 6.71667L23.3059 5.63333C23.2572 5.51296 23.2329 5.41667 23.2329 5.34444V4.76667C23.2329 4.69444 23.2572 4.59815 23.3059 4.47778L22.0639 3.39444L23.0868 1.66111L24.621 2.16667C24.7671 2.02222 24.9315 1.89583 25.1142 1.7875C25.2968 1.67917 25.4977 1.58889 25.7169 1.51667L26.0091 0H28.0548L28.347 1.51667C28.5662 1.58889 28.7671 1.67917 28.9498 1.7875C29.1324 1.89583 29.2968 2.02222 29.4429 2.16667L30.9772 1.66111L32 3.39444L30.758 4.47778C30.8067 4.59815 30.8311 4.69444 30.8311 4.76667V5.34444C30.8311 5.41667 30.8067 5.51296 30.758 5.63333L32 6.71667L30.9772 8.45L29.4429 7.94444C29.2968 8.08889 29.1324 8.21528 28.9498 8.32361C28.7671 8.43194 28.5662 8.52222 28.347 8.59444L28.0548 10.1111H26.0091ZM27.032 6.86111C27.5434 6.86111 27.9756 6.68657 28.3288 6.3375C28.6819 5.98843 28.8584 5.56111 28.8584 5.05556C28.8584 4.55 28.6819 4.12269 28.3288 3.77361C27.9756 3.42454 27.5434 3.25 27.032 3.25C26.5205 3.25 26.0883 3.42454 25.7352 3.77361C25.382 4.12269 25.2055 4.55 25.2055 5.05556C25.2055 5.56111 25.382 5.98843 25.7352 6.3375C26.0883 6.68657 26.5205 6.86111 27.032 6.86111Z" fill="#00AAE5"/>
</svg>
