<svg width="22" height="22" viewBox="0 0 22 22" fill="none" xmlns="http://www.w3.org/2000/svg">
<path d="M0 22V4.88889H4.88889V0H17.1111V9.77778H22V22H12.2222V17.1111H9.77778V22H0ZM2.44444 19.5556H4.88889V17.1111H2.44444V19.5556ZM2.44444 14.6667H4.88889V12.2222H2.44444V14.6667ZM2.44444 9.77778H4.88889V7.33333H2.44444V9.77778ZM7.33333 14.6667H9.77778V12.2222H7.33333V14.6667ZM7.33333 9.77778H9.77778V7.33333H7.33333V9.77778ZM7.33333 4.88889H9.77778V2.44444H7.33333V4.88889ZM12.2222 14.6667H14.6667V12.2222H12.2222V14.6667ZM12.2222 9.77778H14.6667V7.33333H12.2222V9.77778ZM12.2222 4.88889H14.6667V2.44444H12.2222V4.88889ZM17.1111 19.5556H19.5556V17.1111H17.1111V19.5556ZM17.1111 14.6667H19.5556V12.2222H17.1111V14.6667Z" fill="#00AAE5"/>
</svg>
