<svg width="23" height="25" viewBox="0 0 23 25" fill="none" xmlns="http://www.w3.org/2000/svg">
<path d="M0 25V23.181H23V25H0ZM2.42105 21.8285V15.3451C1.73973 14.1062 1.2194 12.8597 0.860079 11.6058C0.500956 10.3519 0.321395 9.11936 0.321395 7.90828C0.321395 6.81524 0.460303 5.71331 0.738118 4.60248C1.01593 3.49165 1.38605 2.30968 1.84847 1.05656C1.96327 0.740855 2.15181 0.485886 2.41409 0.291653C2.67637 0.0972175 2.97507 0 3.31018 0C3.75727 0 4.13677 0.159772 4.44868 0.479317C4.7606 0.798862 4.8878 1.17389 4.8303 1.60439L4.50921 4.23503C4.38816 5.25188 4.49519 6.23375 4.8303 7.18067C5.16562 8.12738 5.65881 8.96616 6.30987 9.69701C6.96093 10.4277 7.73496 11.0153 8.63196 11.46C9.52896 11.9046 10.485 12.1269 11.5 12.1269C12.7337 12.1269 13.9125 12.2339 15.0362 12.4477C16.1598 12.6615 17.1289 12.9698 17.9436 13.3724C18.7817 13.7906 19.4305 14.3254 19.8899 14.9768C20.3492 15.6282 20.5789 16.4367 20.5789 17.4022V21.8285H2.42105ZM4.23684 20.0095H18.7632V17.4022C18.7632 16.8783 18.6305 16.4177 18.3652 16.0203C18.0997 15.6231 17.7139 15.3017 17.2079 15.0559C16.4663 14.6984 15.5856 14.424 14.566 14.2328C13.5463 14.0416 12.5243 13.946 11.5 13.946C10.215 13.946 9.00642 13.6653 7.87417 13.1041C6.74213 12.5428 5.76987 11.7985 4.95741 10.8712C4.14494 9.94369 3.53111 8.88258 3.11589 7.68788C2.70068 6.49297 2.56995 5.26431 2.72368 4.00189C2.52193 4.60824 2.37566 5.24723 2.28487 5.91886C2.19408 6.59049 2.14868 7.25363 2.14868 7.90828C2.14868 9.01042 2.34186 10.1294 2.72822 11.2653C3.11478 12.401 3.61766 13.5931 4.23684 14.8416V20.0095ZM11.5 10.6344C10.3314 10.6344 9.33316 10.2197 8.50516 9.3902C7.67716 8.56071 7.26316 7.56065 7.26316 6.38999C7.26316 5.21934 7.67716 4.21927 8.50516 3.38978C9.33316 2.5603 10.3314 2.14556 11.5 2.14556C12.6686 2.14556 13.6668 2.5603 14.4948 3.38978C15.3228 4.21927 15.7368 5.21934 15.7368 6.38999C15.7368 7.56065 15.3228 8.56071 14.4948 9.3902C13.6668 10.2197 12.6686 10.6344 11.5 10.6344ZM11.5 8.81538C12.1658 8.81538 12.7357 8.57789 13.2099 8.10292C13.684 7.62795 13.9211 7.05697 13.9211 6.38999C13.9211 5.72301 13.684 5.15203 13.2099 4.67706C12.7357 4.20209 12.1658 3.9646 11.5 3.9646C10.8342 3.9646 10.2643 4.20209 9.79013 4.67706C9.31601 5.15203 9.07895 5.72301 9.07895 6.38999C9.07895 7.05697 9.31601 7.62795 9.79013 8.10292C10.2643 8.57789 10.8342 8.81538 11.5 8.81538ZM6.98383 21.8285V21.0215C6.98383 19.7762 7.418 18.7132 8.28636 17.8324C9.15471 16.9518 10.2104 16.5114 11.4534 16.5114H15.923V18.3302H11.4534C10.7053 18.3302 10.076 18.5933 9.56558 19.1196C9.05494 19.646 8.79962 20.2799 8.79962 21.0215V21.8285H6.98383Z" fill="#00AAE5"/>
</svg>
