<svg width="529" height="788" viewBox="0 0 529 788" fill="none" xmlns="http://www.w3.org/2000/svg">
<g opacity="0.1" clip-path="url(#clip0_72_861)">
<path d="M69.1702 584.225L261.869 584.225L261.869 608.841L228.336 608.841C254.05 628.94 266.906 654.157 266.906 684.494C266.906 714.831 256.907 739.22 236.983 758.717C216.983 778.214 192.924 788 164.73 788C136.536 788 113.755 778.44 93.9812 759.395C74.1324 740.199 64.208 715.207 64.208 684.419C64.208 651.824 77.0646 626.606 102.778 608.765L69.2454 608.765L69.2454 584.15L69.1702 584.225ZM86.3875 684.645C86.3875 706.475 93.6053 725.068 108.041 740.425C122.476 755.706 141.423 763.309 164.805 763.309C188.188 763.309 208.713 755.781 223.149 740.726C237.509 725.595 244.651 707.303 244.651 685.924C244.651 663.417 236.907 644.673 221.419 629.768C205.931 614.712 187.06 607.185 164.805 607.185C142.551 607.185 124.205 614.637 109.018 629.617C93.8308 644.597 86.3124 662.89 86.3124 684.569L86.3875 684.645Z" fill="#D7A645"/>
<path d="M261.869 547.716L69.1702 547.716L69.1702 523.1L97.5901 523.1C85.4101 517.003 76.8391 509.701 71.8017 501.195C66.7643 492.613 64.208 481.472 64.208 467.922L89.846 467.922C90.6731 485.612 96.5375 499.237 107.59 508.722C118.491 518.283 132.551 523.025 149.768 523.025L261.944 523.025L261.944 547.641L261.869 547.716Z" fill="#D7A645"/>
<path d="M206.307 284.321L206.307 258.125C246.681 278.676 266.906 311.873 266.906 357.716C266.906 383.762 257.132 407.173 237.509 427.799C217.886 448.501 194.203 458.813 166.459 458.813C138.716 458.813 114.281 448.501 94.3571 427.95C74.2828 407.399 64.208 382.558 64.208 353.501C64.208 330.617 70.3732 310.744 82.6283 293.731C94.8082 276.718 109.77 264.749 127.514 257.749L127.514 283.945C100.071 300.958 86.3875 323.992 86.3875 353.2C86.3875 374.353 93.5301 393.097 107.89 409.507C122.251 425.917 141.874 434.123 166.76 434.123C188.338 434.123 206.758 426.143 222.021 410.185C237.133 394.226 244.727 376.385 244.727 356.813C244.727 323.39 231.945 299.226 206.382 284.321L206.307 284.321Z" fill="#D7A645"/>
<path d="M0.376011 231.627L0.37601 207.011L94.5073 207.011C74.2826 192.558 64.2079 172.535 64.2079 147.091C64.2079 121.647 72.1023 102.075 87.9663 86.794C103.83 71.4375 126.837 63.6839 156.986 63.6839L261.944 63.6839L261.944 88.2995L156.986 88.2995C134.28 88.2995 116.837 93.7948 104.657 104.86C92.4773 115.851 86.3874 130.154 86.3874 147.768C86.3874 165.383 92.4773 180.363 104.657 190.977C116.837 201.667 134.28 207.011 156.986 207.011L261.944 207.011L261.944 231.627L0.376011 231.627Z" fill="#D7A645"/>
<path d="M3.44446e-05 24.6153L3.33686e-05 -0.000306848L44.359 -0.000308787L44.3591 24.6153L3.44446e-05 24.6153ZM69.17 24.6153L69.17 -0.000309872L261.869 -0.000318295L261.869 24.6152L69.17 24.6153Z" fill="#D7A645"/>
<path d="M455.846 630.144L455.846 573.912C477.048 581.59 494.566 594.613 508.324 612.906C522.083 631.123 529 652.953 529 678.472C529 708.131 518.249 733.876 496.821 755.556C475.243 777.16 449.455 788 419.456 788C387.878 788 361.413 777.311 340.061 755.932C318.708 734.553 308.032 708.733 308.032 678.472C308.032 656.717 314.573 635.79 327.58 615.616C340.512 595.441 359.383 581.515 384.119 573.837L384.119 630.069C363.744 639.478 353.594 655.437 353.594 678.02C353.594 695.71 359.609 710.164 371.488 721.229C383.443 732.37 399.307 737.866 419.08 737.866C437.651 737.866 452.988 731.693 465.168 719.347C477.348 706.927 483.438 693.076 483.438 677.945C483.438 668.159 481.333 659.05 477.048 650.619C472.762 642.113 465.695 635.188 455.846 629.918L455.846 630.144Z" fill="#D7A645"/>
<path d="M314.573 547.941L314.573 501.797L335.625 501.797C317.205 491.785 308.032 477.407 308.032 458.738L308.032 453.996L356.301 453.996C357.278 469.277 361.639 480.418 369.308 487.494C376.977 494.495 388.029 497.957 402.389 497.957L522.384 497.957L522.384 547.941L314.573 547.941Z" fill="#D7A645"/>
<path d="M441.184 397.613C469.379 387.225 483.438 367.803 483.438 339.349C483.438 317.217 474.191 301.409 455.846 291.924L455.846 240.435C474.115 246.08 490.882 257.748 506.144 275.438C521.407 293.129 529 314.056 529 338.295C529 371.04 518.174 397.688 496.596 418.314C474.867 438.865 449.154 449.103 419.381 449.103C387.202 449.103 360.586 438.639 339.61 417.787C318.483 396.785 307.957 370.739 307.957 339.574C307.957 310.367 318.633 285.45 339.986 264.674C361.338 243.897 386.6 233.509 415.697 233.509C425.471 233.509 433.967 234.337 441.109 235.918L441.109 397.613L441.184 397.613ZM401.111 398.291L401.111 284.923C369.383 291.171 353.519 309.915 353.519 341.155C353.519 370.589 369.383 389.634 401.111 398.291Z" fill="#D7A645"/>
<path d="M314.573 0.000465342L522.384 0.000456259L522.384 45.9947L496.746 45.9947C504.941 51.7158 512.384 61.8782 519.076 76.4067C525.692 90.7846 528.925 105.163 528.925 119.465C528.925 147.769 518.474 171.632 497.648 191.054C476.672 210.324 450.583 219.96 419.381 219.96C388.179 219.96 361.038 210.174 339.835 190.677C318.633 171.03 308.032 146.113 308.032 115.927C308.032 85.741 319.761 63.3085 343.144 45.9947L314.573 45.9947L314.573 0.000465342ZM353.594 108.776C353.594 124.885 359.684 139.112 371.864 151.458C384.044 163.803 399.758 169.976 419.08 169.976C436.523 169.976 451.635 164.029 464.417 152.211C477.123 140.392 483.438 125.939 483.438 108.776C483.438 91.6126 477.348 76.3314 465.168 64.814C452.988 53.3719 437.576 47.5755 419.08 47.5755C400.585 47.5756 385.924 53.0708 372.992 64.0612C360.06 74.9011 353.594 89.8059 353.594 108.776Z" fill="#D7A645"/>
</g>
<defs>
<clipPath id="clip0_72_861">
<rect width="788" height="529" fill="white" transform="translate(3.44446e-05 788) rotate(-90)"/>
</clipPath>
</defs>
</svg>
