<svg width="28" height="28" viewBox="0 0 28 28" fill="none" xmlns="http://www.w3.org/2000/svg">
<path d="M0 28V6.22222H6.22222V0H21.7778V12.4444H28V28H15.5556V21.7778H12.4444V28H0ZM3.11111 24.8889H6.22222V21.7778H3.11111V24.8889ZM3.11111 18.6667H6.22222V15.5556H3.11111V18.6667ZM3.11111 12.4444H6.22222V9.33333H3.11111V12.4444ZM9.33333 18.6667H12.4444V15.5556H9.33333V18.6667ZM9.33333 12.4444H12.4444V9.33333H9.33333V12.4444ZM9.33333 6.22222H12.4444V3.11111H9.33333V6.22222ZM15.5556 18.6667H18.6667V15.5556H15.5556V18.6667ZM15.5556 12.4444H18.6667V9.33333H15.5556V12.4444ZM15.5556 6.22222H18.6667V3.11111H15.5556V6.22222ZM21.7778 24.8889H24.8889V21.7778H21.7778V24.8889ZM21.7778 18.6667H24.8889V15.5556H21.7778V18.6667Z" fill="#C0D22C"/>
</svg>
