<svg width="21" height="35" viewBox="0 0 21 35" fill="none" xmlns="http://www.w3.org/2000/svg">
<path d="M0.477273 34.3636L0 30.1636L5.44091 15.1773C5.91818 15.6227 6.43523 15.9966 6.99205 16.2989C7.54886 16.6011 8.14545 16.8318 8.78182 16.9909L3.53182 31.4045L0.477273 34.3636ZM20.5227 34.3636L17.4682 31.4045L12.2182 16.9909C12.8545 16.8318 13.4511 16.6011 14.008 16.2989C14.5648 15.9966 15.0818 15.6227 15.5591 15.1773L21 30.1636L20.5227 34.3636ZM10.5 15.2727C8.90909 15.2727 7.55682 14.7159 6.44318 13.6023C5.32955 12.4886 4.77273 11.1364 4.77273 9.54545C4.77273 8.30455 5.13068 7.19886 5.84659 6.22841C6.5625 5.25795 7.47727 4.58182 8.59091 4.2V0H12.4091V4.2C13.5227 4.58182 14.4375 5.25795 15.1534 6.22841C15.8693 7.19886 16.2273 8.30455 16.2273 9.54545C16.2273 11.1364 15.6705 12.4886 14.5568 13.6023C13.4432 14.7159 12.0909 15.2727 10.5 15.2727ZM10.5 11.4545C11.0409 11.4545 11.4943 11.2716 11.8602 10.9057C12.2261 10.5398 12.4091 10.0864 12.4091 9.54545C12.4091 9.00455 12.2261 8.55114 11.8602 8.18523C11.4943 7.81932 11.0409 7.63636 10.5 7.63636C9.95909 7.63636 9.50568 7.81932 9.13977 8.18523C8.77386 8.55114 8.59091 9.00455 8.59091 9.54545C8.59091 10.0864 8.77386 10.5398 9.13977 10.9057C9.50568 11.2716 9.95909 11.4545 10.5 11.4545Z" fill="#C0D22C"/>
</svg>
