<svg width="208" height="55" viewBox="0 0 208 55" fill="none" xmlns="http://www.w3.org/2000/svg">
<path d="M27.07 14.16V39.79H23.8V35.33C21.13 38.75 17.78 40.46 13.75 40.46C9.72 40.46 6.48 39.13 3.89 36.48C1.3 33.82 0 30.62 0 26.87C0 23.12 1.27 20.09 3.8 17.46C6.35 14.82 9.67 13.5 13.76 13.5C18.09 13.5 21.44 15.21 23.81 18.63V14.17H27.08L27.07 14.16ZM13.73 16.45C10.83 16.45 8.36 17.41 6.32 19.33C4.29 21.25 3.28 23.77 3.28 26.88C3.28 29.99 4.28 32.72 6.28 34.64C8.29 36.55 10.72 37.5 13.56 37.5C16.55 37.5 19.04 36.47 21.02 34.41C23.02 32.35 24.02 29.84 24.02 26.88C24.02 23.92 23.03 21.48 21.04 19.46C19.05 17.44 16.62 16.44 13.74 16.44L13.73 16.45Z" fill="#8A8888"/>
<path d="M31.92 39.8V14.16H35.19V17.94C36 16.32 36.97 15.18 38.1 14.51C39.24 13.84 40.72 13.5 42.52 13.5V16.91C40.17 17.02 38.36 17.8 37.1 19.27C35.83 20.72 35.2 22.59 35.2 24.88V39.8H31.93H31.92Z" fill="#8A8888"/>
<path d="M66.91 32.4H70.39C67.66 37.77 63.25 40.46 57.16 40.46C53.7 40.46 50.59 39.16 47.85 36.55C45.1 33.94 43.73 30.79 43.73 27.1C43.73 23.41 45.1 20.16 47.83 17.51C50.56 14.84 53.86 13.5 57.72 13.5C60.76 13.5 63.4 14.32 65.66 15.95C67.92 17.57 69.51 19.56 70.44 21.92H66.96C64.7 18.27 61.64 16.45 57.76 16.45C54.95 16.45 52.46 17.4 50.28 19.31C48.1 21.22 47.01 23.83 47.01 27.14C47.01 30.01 48.07 32.46 50.19 34.49C52.31 36.5 54.68 37.51 57.28 37.51C61.72 37.51 64.93 35.81 66.91 32.41V32.4Z" fill="#8A8888"/>
<path d="M73.91 5.00977H77.18V17.5298C79.1 14.8398 81.76 13.4998 85.14 13.4998C88.52 13.4998 91.12 14.5498 93.15 16.6598C95.19 18.7698 96.22 21.8298 96.22 25.8398V39.7998H92.95V25.8398C92.95 22.8198 92.22 20.4998 90.75 18.8798C89.29 17.2598 87.39 16.4498 85.05 16.4498C82.71 16.4498 80.72 17.2598 79.31 18.8798C77.89 20.4998 77.18 22.8198 77.18 25.8398V39.7998H73.91V5.00977Z" fill="#8A8888"/>
<path d="M101.41 4.95996H104.68V10.86H101.41V4.95996ZM101.41 14.16H104.68V39.79H101.41V14.16Z" fill="#8A8888"/>
<path d="M128.09 31.4705H135.12C134.16 34.1305 132.53 36.3105 130.25 38.0405C127.98 39.7605 125.25 40.6305 122.06 40.6305C118.35 40.6305 115.14 39.2905 112.43 36.6005C109.73 33.9005 108.38 30.6705 108.38 26.9205C108.38 22.9705 109.71 19.6605 112.38 16.9905C115.05 14.3205 118.28 12.9805 122.06 12.9805C124.78 12.9805 127.39 13.8005 129.91 15.4305C132.43 17.0505 134.17 19.4105 135.13 22.5005H128.1C126.93 19.9505 124.93 18.6805 122.1 18.6805C119.89 18.6805 118.09 19.4305 116.7 20.9205C115.31 22.4205 114.62 24.4005 114.62 26.8705C114.62 29.1905 115.39 31.1105 116.93 32.6405C118.49 34.1705 120.21 34.9305 122.1 34.9305C123.32 34.9305 124.46 34.6605 125.51 34.1305C126.58 33.6005 127.44 32.7105 128.1 31.4705H128.09Z" fill="#00AAE5"/>
<path d="M138.36 13.7997H144.13V16.4297C145.38 14.1297 147.17 12.9697 149.51 12.9697H150.1V19.0097C148.19 19.1297 146.8 19.6697 145.91 20.6297C145.04 21.5897 144.61 22.9697 144.61 24.7697V39.7797H138.36V13.7997Z" fill="#00AAE5"/>
<path d="M157.14 29.6397C158.44 33.1597 160.86 34.9297 164.42 34.9297C167.18 34.9297 169.16 33.7797 170.35 31.4697H176.78C176.08 33.7597 174.62 35.8597 172.41 37.7597C170.2 39.6697 167.58 40.6197 164.56 40.6197C160.47 40.6197 157.14 39.2697 154.56 36.5697C152 33.8497 150.72 30.6297 150.72 26.9097C150.72 22.8797 152.02 19.5597 154.63 16.9297C157.25 14.2897 160.51 12.9697 164.4 12.9697C168.05 12.9697 171.17 14.2997 173.76 16.9797C176.35 19.6497 177.65 22.8097 177.65 26.4597C177.65 27.6797 177.55 28.7397 177.35 29.6397H157.14ZM157.05 24.6197H171.22C170.44 20.6497 168.1 18.6697 164.19 18.6697C160.51 18.6697 158.13 20.6497 157.05 24.6197Z" fill="#00AAE5"/>
<path d="M206.82 13.8005V39.8005H201.08V36.6005C200.36 37.6205 199.1 38.5505 197.28 39.3905C195.48 40.2105 193.69 40.6305 191.9 40.6305C188.36 40.6305 185.38 39.3305 182.95 36.7205C180.54 34.1005 179.33 30.8305 179.33 26.9205C179.33 23.0105 180.55 19.6205 182.99 16.9605C185.45 14.3005 188.56 12.9805 192.33 12.9805C196.1 12.9805 198.91 14.4405 201.07 17.3705V13.8005H206.81H206.82ZM193.23 18.6705C191.22 18.6705 189.44 19.4305 187.9 20.9605C186.36 22.4905 185.59 24.4505 185.59 26.8605C185.59 29.0405 186.33 30.9305 187.81 32.5405C189.29 34.1305 191.1 34.9205 193.23 34.9205C195.36 34.9205 197.29 34.1605 198.72 32.6305C200.15 31.1005 200.87 29.1805 200.87 26.8605C200.87 24.5405 200.18 22.7105 198.81 21.0905C197.45 19.4705 195.59 18.6605 193.23 18.6605V18.6705Z" fill="#00AAE5"/>
<path d="M5.36 54.5699C4.79 54.5699 4.24 54.4799 3.71 54.3099C3.18 54.1399 2.77 53.9099 2.47 53.6299L2.87 52.7899C3.16 53.0399 3.52 53.2499 3.97 53.4099C4.41 53.5799 4.88 53.6599 5.36 53.6599C5.8 53.6599 6.15 53.6099 6.42 53.5099C6.69 53.4099 6.89 53.2699 7.02 53.0999C7.15 52.9199 7.21 52.7199 7.21 52.4999C7.21 52.2399 7.13 52.0299 6.96 51.8799C6.79 51.7199 6.57 51.5899 6.3 51.4999C6.03 51.4099 5.74 51.3199 5.41 51.2499C5.08 51.1799 4.76 51.0899 4.44 50.9999C4.11 50.8999 3.82 50.7799 3.55 50.6299C3.28 50.4799 3.06 50.2799 2.9 50.0199C2.73 49.7699 2.65 49.4399 2.65 49.0399C2.65 48.6399 2.75 48.2999 2.96 47.9699C3.16 47.6399 3.48 47.3799 3.91 47.1799C4.34 46.9799 4.88 46.8799 5.54 46.8799C5.98 46.8799 6.41 46.9399 6.84 47.0499C7.27 47.1699 7.64 47.3299 7.96 47.5499L7.61 48.4099C7.29 48.1999 6.95 48.0399 6.59 47.9399C6.23 47.8399 5.88 47.7899 5.55 47.7899C5.13 47.7899 4.78 47.8399 4.51 47.9499C4.24 48.0599 4.04 48.1999 3.91 48.3799C3.78 48.5599 3.72 48.7599 3.72 48.9799C3.72 49.2499 3.8 49.4599 3.97 49.6099C4.14 49.7699 4.36 49.8899 4.63 49.9899C4.9 50.0799 5.19 50.1699 5.52 50.2399C5.85 50.3099 6.17 50.3999 6.49 50.4899C6.81 50.5799 7.11 50.6999 7.38 50.8599C7.65 51.0099 7.87 51.2099 8.03 51.4599C8.19 51.7099 8.28 52.0299 8.28 52.4299C8.28 52.8299 8.18 53.1599 7.97 53.4899C7.76 53.8199 7.44 54.0799 7.01 54.2799C6.58 54.4799 6.03 54.5799 5.37 54.5799L5.36 54.5699Z" fill="#8A8888"/>
<path d="M13.01 54.4802L16.42 46.9502H17.48L20.9 54.4802H19.77L16.73 47.5502H17.16L14.12 54.4802H13.01ZM14.46 52.6002L14.75 51.7402H18.99L19.3 52.6002H14.46Z" fill="#8A8888"/>
<path d="M26.32 54.4802V46.9502H29.26C29.92 46.9502 30.48 47.0502 30.95 47.2602C31.42 47.4702 31.77 47.7702 32.03 48.1602C32.29 48.5502 32.41 49.0202 32.41 49.5702C32.41 50.1202 32.28 50.5802 32.03 50.9702C31.78 51.3602 31.42 51.6602 30.95 51.8702C30.48 52.0802 29.92 52.1802 29.26 52.1802H26.92L27.4 51.6802V54.4702H26.32V54.4802ZM27.4 51.8002L26.92 51.2702H29.23C29.92 51.2702 30.44 51.1202 30.79 50.8202C31.14 50.5202 31.32 50.1002 31.32 49.5702C31.32 49.0402 31.14 48.6202 30.79 48.3202C30.44 48.0202 29.91 47.8802 29.23 47.8802H26.92L27.4 47.3402V51.7902V51.8002ZM31.35 54.4802L29.44 51.7502H30.59L32.53 54.4802H31.36H31.35Z" fill="#8A8888"/>
<path d="M38.44 54.4802V46.9502H39.52V53.5402H43.6V54.4802H38.45H38.44Z" fill="#8A8888"/>
<path d="M56.32 54.4802V46.9502H59.49C60.29 46.9502 61 47.1102 61.61 47.4202C62.22 47.7302 62.7 48.1802 63.04 48.7402C63.38 49.3102 63.55 49.9602 63.55 50.7102C63.55 51.4602 63.38 52.1102 63.04 52.6802C62.7 53.2502 62.22 53.6902 61.61 54.0002C61 54.3202 60.29 54.4702 59.49 54.4702H56.32V54.4802ZM57.4 53.5502H59.43C60.05 53.5502 60.59 53.4302 61.05 53.1902C61.51 52.9502 61.86 52.6202 62.11 52.2002C62.36 51.7802 62.49 51.2802 62.49 50.7202C62.49 50.1602 62.36 49.6602 62.11 49.2402C61.86 48.8202 61.51 48.4902 61.05 48.2502C60.59 48.0102 60.05 47.9002 59.43 47.9002H57.4V53.5602V53.5502Z" fill="#8A8888"/>
<path d="M68.93 49.86L68.87 46.96H69.77L69.69 49.86H68.93Z" fill="#8A8888"/>
<path d="M74.27 54.4802L77.68 46.9502H78.74L82.16 54.4802H81.03L77.99 47.5502H78.42L75.38 54.4802H74.27ZM75.73 52.6002L76.02 51.7402H80.26L80.57 52.6002H75.73Z" fill="#8A8888"/>
<path d="M87.59 54.4802V46.9502H90.53C91.19 46.9502 91.75 47.0502 92.22 47.2602C92.69 47.4702 93.04 47.7702 93.3 48.1602C93.56 48.5502 93.68 49.0202 93.68 49.5702C93.68 50.1202 93.55 50.5802 93.3 50.9702C93.05 51.3602 92.69 51.6602 92.22 51.8702C91.75 52.0802 91.19 52.1802 90.53 52.1802H88.19L88.67 51.6802V54.4702H87.59V54.4802ZM88.66 51.8002L88.18 51.2702H90.49C91.18 51.2702 91.7 51.1202 92.05 50.8202C92.4 50.5202 92.58 50.1002 92.58 49.5702C92.58 49.0402 92.4 48.6202 92.05 48.3202C91.7 48.0202 91.17 47.8802 90.49 47.8802H88.18L88.66 47.3402V51.7902V51.8002ZM92.62 54.4802L90.71 51.7502H91.86L93.8 54.4802H92.63H92.62Z" fill="#8A8888"/>
<path d="M103.07 54.5696C102.5 54.5696 101.97 54.4796 101.48 54.2796C101 54.0896 100.58 53.8196 100.22 53.4696C99.86 53.1196 99.59 52.7196 99.39 52.2496C99.19 51.7796 99.09 51.2696 99.09 50.7096C99.09 50.1496 99.19 49.6396 99.39 49.1696C99.59 48.6996 99.87 48.2996 100.23 47.9496C100.59 47.5996 101.01 47.3296 101.49 47.1396C101.97 46.9496 102.5 46.8496 103.08 46.8496C103.66 46.8496 104.2 46.9496 104.69 47.1496C105.18 47.3496 105.6 47.6396 105.94 48.0296L105.24 48.7096C104.95 48.4096 104.63 48.1796 104.27 48.0396C103.91 47.8896 103.53 47.8196 103.12 47.8196C102.71 47.8196 102.3 47.8896 101.94 48.0396C101.58 48.1796 101.26 48.3796 101 48.6396C100.73 48.8996 100.53 49.1996 100.38 49.5596C100.23 49.9196 100.16 50.2996 100.16 50.7196C100.16 51.1396 100.23 51.5196 100.38 51.8796C100.53 52.2396 100.73 52.5396 101 52.7996C101.27 53.0596 101.58 53.2596 101.94 53.3996C102.3 53.5396 102.69 53.6096 103.12 53.6096C103.55 53.6096 103.91 53.5396 104.27 53.3896C104.63 53.2396 104.95 53.0196 105.24 52.7096L105.94 53.3896C105.6 53.7796 105.18 54.0696 104.69 54.2696C104.2 54.4696 103.66 54.5696 103.07 54.5696Z" fill="#8A8888"/>
<path d="M112.86 54.4802H111.78V46.9502H112.86V54.4802ZM117.28 51.1302H112.75V50.1902H117.28V51.1302ZM117.18 46.9502H118.26V54.4802H117.18V46.9502Z" fill="#8A8888"/>
<path d="M124.82 54.4802V46.9502H125.9V54.4802H124.82Z" fill="#8A8888"/>
<path d="M133.95 54.4802V47.8902H131.37V46.9502H137.6V47.8902H135.02V54.4802H133.96H133.95Z" fill="#8A8888"/>
<path d="M144.15 53.55H148.54V54.49H143.08V46.96H148.39V47.9H144.15V53.56V53.55ZM144.05 50.2H147.92V51.11H144.05V50.2Z" fill="#8A8888"/>
<path d="M157.93 54.5696C157.36 54.5696 156.83 54.4796 156.34 54.2796C155.86 54.0896 155.44 53.8196 155.08 53.4696C154.73 53.1196 154.45 52.7196 154.25 52.2496C154.05 51.7796 153.95 51.2696 153.95 50.7096C153.95 50.1496 154.05 49.6396 154.25 49.1696C154.45 48.6996 154.73 48.2996 155.09 47.9496C155.45 47.5996 155.87 47.3296 156.35 47.1396C156.83 46.9496 157.36 46.8496 157.94 46.8496C158.52 46.8496 159.06 46.9496 159.55 47.1496C160.04 47.3496 160.46 47.6396 160.8 48.0296L160.1 48.7096C159.81 48.4096 159.49 48.1796 159.13 48.0396C158.77 47.8896 158.39 47.8196 157.98 47.8196C157.57 47.8196 157.16 47.8896 156.8 48.0396C156.44 48.1796 156.12 48.3796 155.86 48.6396C155.59 48.8996 155.39 49.1996 155.24 49.5596C155.09 49.9196 155.02 50.2996 155.02 50.7196C155.02 51.1396 155.09 51.5196 155.24 51.8796C155.39 52.2396 155.59 52.5396 155.86 52.7996C156.12 53.0596 156.44 53.2596 156.8 53.3996C157.16 53.5396 157.55 53.6096 157.98 53.6096C158.41 53.6096 158.77 53.5396 159.13 53.3896C159.49 53.2396 159.81 53.0196 160.1 52.7096L160.8 53.3896C160.46 53.7796 160.04 54.0696 159.55 54.2696C159.06 54.4696 158.52 54.5696 157.93 54.5696Z" fill="#8A8888"/>
<path d="M168.05 54.4802V47.8902H165.47V46.9502H171.7V47.8902H169.12V54.4802H168.06H168.05Z" fill="#8A8888"/>
<path d="M180.15 54.57C179.16 54.57 178.38 54.29 177.82 53.72C177.26 53.15 176.97 52.33 176.97 51.24V46.96H178.05V51.2C178.05 52.04 178.23 52.65 178.6 53.04C178.97 53.43 179.49 53.62 180.16 53.62C180.83 53.62 181.37 53.43 181.74 53.04C182.11 52.65 182.29 52.04 182.29 51.2V46.96H183.33V51.24C183.33 52.33 183.05 53.16 182.49 53.72C181.93 54.28 181.15 54.57 180.15 54.57Z" fill="#8A8888"/>
<path d="M189.84 54.4802V46.9502H192.78C193.44 46.9502 194 47.0502 194.47 47.2602C194.94 47.4702 195.29 47.7702 195.55 48.1602C195.81 48.5502 195.93 49.0202 195.93 49.5702C195.93 50.1202 195.81 50.5802 195.55 50.9702C195.29 51.3602 194.94 51.6602 194.47 51.8702C194 52.0802 193.44 52.1802 192.78 52.1802H190.44L190.92 51.6802V54.4702H189.84V54.4802ZM190.92 51.8002L190.44 51.2702H192.75C193.44 51.2702 193.96 51.1202 194.31 50.8202C194.66 50.5202 194.84 50.1002 194.84 49.5702C194.84 49.0402 194.66 48.6202 194.31 48.3202C193.96 48.0202 193.43 47.8802 192.75 47.8802H190.44L190.92 47.3402V51.7902V51.8002ZM194.87 54.4802L192.96 51.7502H194.11L196.05 54.4802H194.88H194.87Z" fill="#8A8888"/>
<path d="M203.04 53.55H207.43V54.49H201.97V46.96H207.28V47.9H203.04V53.56V53.55ZM202.94 50.2H206.81V51.11H202.94V50.2Z" fill="#8A8888"/>
<path fill-rule="evenodd" clip-rule="evenodd" d="M169.57 0L158.88 6.42L161.48 10.85L172.32 5.04L169.57 0Z" fill="#C0D22C"/>
</svg>
