<svg width="24" height="24" viewBox="0 0 24 24" fill="none" xmlns="http://www.w3.org/2000/svg">
<path d="M23.9434 18.1144C23.6637 17.8166 22.6764 16.9359 20.8614 15.7707C19.033 14.5953 17.6846 13.8624 17.2978 13.6915C17.2637 13.6764 17.2261 13.6709 17.1891 13.6755C17.1521 13.6801 17.1171 13.6948 17.0878 13.7178C16.4647 14.2037 15.4158 15.0962 15.3595 15.1444C14.9963 15.4557 14.9963 15.4557 14.699 15.3587C14.1761 15.1873 12.5518 14.3248 11.1365 12.9062C9.72111 11.4876 8.81414 9.82312 8.64271 9.3008C8.54467 9.00294 8.54467 9.00294 8.857 8.63972C8.90521 8.58347 9.79825 7.53454 10.2841 6.91203C10.3072 6.88272 10.3218 6.84768 10.3264 6.81068C10.3311 6.77367 10.3255 6.73611 10.3104 6.70203C10.1395 6.3147 9.40664 4.96684 8.23128 3.13843C7.06448 1.32395 6.18483 0.336621 5.88697 0.0569761C5.85964 0.0311828 5.82585 0.0132396 5.78918 0.00503707C5.7525 -0.00316546 5.71429 -0.00132351 5.67858 0.0103686C4.6374 0.368182 3.63282 0.824728 2.67855 1.37377C1.75734 1.90929 0.885202 2.52508 0.0722817 3.21397C0.0439046 3.23809 0.0226295 3.26948 0.0107381 3.30478C-0.00115332 3.34008 -0.00321252 3.37795 0.00478121 3.41432C0.116746 3.93611 0.651929 6.11435 2.31266 9.13151C4.00713 12.2108 5.18143 13.7885 7.66984 16.2684C10.1583 18.7482 11.7858 19.9932 14.8683 21.6877C17.8855 23.3484 20.0648 23.8841 20.5855 23.995C20.6219 24.0029 20.6599 24.0008 20.6952 23.989C20.7306 23.9771 20.7621 23.9559 20.7864 23.9275C21.4751 23.1146 22.0908 22.2425 22.626 21.3213C23.175 20.3669 23.6315 19.3624 23.9894 18.3212C24.0009 18.2858 24.0027 18.2479 23.9946 18.2116C23.9865 18.1752 23.9688 18.1417 23.9434 18.1144Z" fill="white"/>
</svg>
