<svg width="36" height="30" viewBox="0 0 36 30" fill="none" xmlns="http://www.w3.org/2000/svg">
<path d="M0 29.589V24.9863C0 24.0822 0.232877 23.2329 0.69863 22.4384C1.16438 21.6438 1.80822 21.0411 2.63014 20.6301C4.0274 19.9178 5.60274 19.3151 7.35616 18.8219C9.10959 18.3288 11.0411 18.0822 13.1507 18.0822C15.2603 18.0822 17.1918 18.3288 18.9452 18.8219C20.6986 19.3151 22.274 19.9178 23.6712 20.6301C24.4932 21.0411 25.137 21.6438 25.6027 22.4384C26.0685 23.2329 26.3014 24.0822 26.3014 24.9863V29.589H0ZM3.28767 26.3014H23.0137V24.9863C23.0137 24.6849 22.9384 24.411 22.7877 24.1644C22.637 23.9178 22.4384 23.726 22.1918 23.589C21.2055 23.0959 19.9384 22.6027 18.3904 22.1096C16.8425 21.6164 15.0959 21.3699 13.1507 21.3699C11.2055 21.3699 9.4589 21.6164 7.91096 22.1096C6.36301 22.6027 5.09589 23.0959 4.10959 23.589C3.86301 23.726 3.66438 23.9178 3.5137 24.1644C3.36301 24.411 3.28767 24.6849 3.28767 24.9863V26.3014ZM13.1507 16.4384C11.3425 16.4384 9.79452 15.7945 8.50685 14.5069C7.21918 13.2192 6.57534 11.6712 6.57534 9.86301H6.16438C5.91781 9.86301 5.71918 9.78767 5.56849 9.63699C5.41781 9.4863 5.34247 9.28767 5.34247 9.0411C5.34247 8.79452 5.41781 8.59589 5.56849 8.44521C5.71918 8.29452 5.91781 8.21918 6.16438 8.21918H6.57534C6.57534 6.9863 6.87671 5.87671 7.47945 4.89041C8.08219 3.90411 8.87671 3.12329 9.86301 2.54795V4.10959C9.86301 4.35616 9.93836 4.55479 10.089 4.70548C10.2397 4.85616 10.4384 4.93151 10.6849 4.93151C10.9315 4.93151 11.1301 4.85616 11.2808 4.70548C11.4315 4.55479 11.5068 4.35616 11.5068 4.10959V1.89041C11.7534 1.80822 12.0137 1.74658 12.2877 1.70548C12.5616 1.66438 12.8493 1.64384 13.1507 1.64384C13.4521 1.64384 13.7397 1.66438 14.0137 1.70548C14.2877 1.74658 14.5479 1.80822 14.7945 1.89041V4.10959C14.7945 4.35616 14.8699 4.55479 15.0205 4.70548C15.1712 4.85616 15.3699 4.93151 15.6164 4.93151C15.863 4.93151 16.0616 4.85616 16.2123 4.70548C16.363 4.55479 16.4384 4.35616 16.4384 4.10959V2.54795C17.4247 3.12329 18.2192 3.90411 18.8219 4.89041C19.4247 5.87671 19.726 6.9863 19.726 8.21918H20.137C20.3836 8.21918 20.5822 8.29452 20.7329 8.44521C20.8836 8.59589 20.9589 8.79452 20.9589 9.0411C20.9589 9.28767 20.8836 9.4863 20.7329 9.63699C20.5822 9.78767 20.3836 9.86301 20.137 9.86301H19.726C19.726 11.6712 19.0822 13.2192 17.7945 14.5069C16.5068 15.7945 14.9589 16.4384 13.1507 16.4384ZM13.1507 13.1507C14.0548 13.1507 14.8288 12.8288 15.4726 12.1849C16.1164 11.5411 16.4384 10.7671 16.4384 9.86301H9.86301C9.86301 10.7671 10.1849 11.5411 10.8288 12.1849C11.4726 12.8288 12.2466 13.1507 13.1507 13.1507ZM25.4795 19.726L25.2329 18.4932C25.0685 18.4384 24.911 18.3767 24.7603 18.3082C24.6096 18.2397 24.4658 18.137 24.3288 18L23.1781 18.411L22.3562 16.9315L23.2603 16.1096V15.1233L22.3562 14.3014L23.1781 12.8219L24.3288 13.2329C24.4384 13.1233 24.5753 13.0274 24.7397 12.9452C24.9041 12.863 25.0685 12.7945 25.2329 12.7397L25.4795 11.5069H27.1233L27.3699 12.7397C27.5342 12.7945 27.6986 12.863 27.863 12.9452C28.0274 13.0274 28.1644 13.1233 28.274 13.2329L29.4247 12.8219L30.2466 14.3014L29.3425 15.1233V16.1096L30.2466 16.9315L29.4247 18.411L28.274 18C28.137 18.137 27.9932 18.2397 27.8425 18.3082C27.6918 18.3767 27.5342 18.4384 27.3699 18.4932L27.1233 19.726H25.4795ZM26.3014 16.8493C26.6301 16.8493 26.9178 16.726 27.1644 16.4795C27.411 16.2329 27.5342 15.9452 27.5342 15.6164C27.5342 15.2877 27.411 15 27.1644 14.7534C26.9178 14.5069 26.6301 14.3836 26.3014 14.3836C25.9726 14.3836 25.6849 14.5069 25.4384 14.7534C25.1918 15 25.0685 15.2877 25.0685 15.6164C25.0685 15.9452 25.1918 16.2329 25.4384 16.4795C25.6849 16.726 25.9726 16.8493 26.3014 16.8493ZM29.2603 11.5069L28.9315 9.78082C28.6849 9.69863 28.4589 9.59589 28.2534 9.4726C28.0479 9.34932 27.863 9.20548 27.6986 9.0411L25.9726 9.61644L24.8219 7.64384L26.2192 6.41096C26.1644 6.27397 26.137 6.16438 26.137 6.08219V5.42466C26.137 5.34247 26.1644 5.23288 26.2192 5.09589L24.8219 3.86301L25.9726 1.89041L27.6986 2.46575C27.863 2.30137 28.0479 2.15753 28.2534 2.03425C28.4589 1.91096 28.6849 1.80822 28.9315 1.72603L29.2603 0H31.5616L31.8904 1.72603C32.137 1.80822 32.363 1.91096 32.5685 2.03425C32.774 2.15753 32.9589 2.30137 33.1233 2.46575L34.8493 1.89041L36 3.86301L34.6027 5.09589C34.6575 5.23288 34.6849 5.34247 34.6849 5.42466V6.08219C34.6849 6.16438 34.6575 6.27397 34.6027 6.41096L36 7.64384L34.8493 9.61644L33.1233 9.0411C32.9589 9.20548 32.774 9.34932 32.5685 9.4726C32.363 9.59589 32.137 9.69863 31.8904 9.78082L31.5616 11.5069H29.2603ZM30.411 7.80822C30.9863 7.80822 31.4726 7.60959 31.8699 7.21233C32.2671 6.81507 32.4658 6.32877 32.4658 5.75343C32.4658 5.17808 32.2671 4.69178 31.8699 4.29452C31.4726 3.89726 30.9863 3.69863 30.411 3.69863C29.8356 3.69863 29.3493 3.89726 28.9521 4.29452C28.5548 4.69178 28.3562 5.17808 28.3562 5.75343C28.3562 6.32877 28.5548 6.81507 28.9521 7.21233C29.3493 7.60959 29.8356 7.80822 30.411 7.80822Z" fill="#C0D22C"/>
</svg>
